<svg id="visual" viewBox="0 0 900 600" width="900" height="600" xmlns="http://www.w3.org/2000/svg" xmlns:xlink="http://www.w3.org/1999/xlink" version="1.1"><rect x="0" y="0" width="900" height="600" fill="#001220"></rect><path d="M0 350L21.5 363.2C43 376.3 86 402.7 128.8 418.5C171.7 434.3 214.3 439.7 257.2 432.8C300 426 343 407 385.8 393.7C428.7 380.3 471.3 372.7 514.2 367.2C557 361.7 600 358.3 642.8 362.2C685.7 366 728.3 377 771.2 378.8C814 380.7 857 373.3 878.5 369.7L900 366L900 601L878.5 601C857 601 814 601 771.2 601C728.3 601 685.7 601 642.8 601C600 601 557 601 514.2 601C471.3 601 428.7 601 385.8 601C343 601 300 601 257.2 601C214.3 601 171.7 601 128.8 601C86 601 43 601 21.5 601L0 601Z" fill="#fa7268"></path><path d="M0 417L21.5 414.7C43 412.3 86 407.7 128.8 409C171.7 410.3 214.3 417.7 257.2 419C300 420.3 343 415.7 385.8 418.2C428.7 420.7 471.3 430.3 514.2 428.5C557 426.7 600 413.3 642.8 406C685.7 398.7 728.3 397.3 771.2 399.5C814 401.7 857 407.3 878.5 410.2L900 413L900 601L878.5 601C857 601 814 601 771.2 601C728.3 601 685.7 601 642.8 601C600 601 557 601 514.2 601C471.3 601 428.7 601 385.8 601C343 601 300 601 257.2 601C214.3 601 171.7 601 128.8 601C86 601 43 601 21.5 601L0 601Z" fill="#ef5f67"></path><path d="M0 475L21.5 476.2C43 477.3 86 479.7 128.8 483C171.7 486.3 214.3 490.7 257.2 494.5C300 498.3 343 501.7 385.8 498.3C428.7 495 471.3 485 514.2 483.3C557 481.7 600 488.3 642.8 491.7C685.7 495 728.3 495 771.2 492.5C814 490 857 485 878.5 482.5L900 480L900 601L878.5 601C857 601 814 601 771.2 601C728.3 601 685.7 601 642.8 601C600 601 557 601 514.2 601C471.3 601 428.7 601 385.8 601C343 601 300 601 257.2 601C214.3 601 171.7 601 128.8 601C86 601 43 601 21.5 601L0 601Z" fill="#e34c67"></path><path d="M0 529L21.5 522.7C43 516.3 86 503.7 128.8 498.5C171.7 493.3 214.3 495.7 257.2 495.3C300 495 343 492 385.8 495.3C428.7 498.7 471.3 508.3 514.2 511C557 513.7 600 509.3 642.8 510.3C685.7 511.3 728.3 517.7 771.2 517.2C814 516.7 857 509.3 878.5 505.7L900 502L900 601L878.5 601C857 601 814 601 771.2 601C728.3 601 685.7 601 642.8 601C600 601 557 601 514.2 601C471.3 601 428.7 601 385.8 601C343 601 300 601 257.2 601C214.3 601 171.7 601 128.8 601C86 601 43 601 21.5 601L0 601Z" fill="#d53867"></path><path d="M0 536L21.5 536.2C43 536.3 86 536.7 128.8 536.7C171.7 536.7 214.3 536.3 257.2 539.3C300 542.3 343 548.7 385.8 546.7C428.7 544.7 471.3 534.3 514.2 531.5C557 528.7 600 533.3 642.8 534C685.7 534.7 728.3 531.3 771.2 529.7C814 528 857 528 878.5 528L900 528L900 601L878.5 601C857 601 814 601 771.2 601C728.3 601 685.7 601 642.8 601C600 601 557 601 514.2 601C471.3 601 428.7 601 385.8 601C343 601 300 601 257.2 601C214.3 601 171.7 601 128.8 601C86 601 43 601 21.5 601L0 601Z" fill="#c62368"></path></svg>