<svg id="visual" viewBox="0 0 960 540" width="960" height="540" xmlns="http://www.w3.org/2000/svg" xmlns:xlink="http://www.w3.org/1999/xlink" version="1.1"><rect x="0" y="0" width="960" height="540" fill="#002233"></rect><path d="M0 97L22.8 111.2C45.7 125.3 91.3 153.7 137 154.3C182.7 155 228.3 128 274 112C319.7 96 365.3 91 411.2 91.5C457 92 503 98 548.8 100.5C594.7 103 640.3 102 686 110.8C731.7 119.7 777.3 138.3 823 151.2C868.7 164 914.3 171 937.2 174.5L960 178L960 0L937.2 0C914.3 0 868.7 0 823 0C777.3 0 731.7 0 686 0C640.3 0 594.7 0 548.8 0C503 0 457 0 411.2 0C365.3 0 319.7 0 274 0C228.3 0 182.7 0 137 0C91.3 0 45.7 0 22.8 0L0 0Z" fill="#0066FF" stroke-linecap="round" stroke-linejoin="miter"></path></svg>