<svg id="visual" viewBox="0 0 960 540" width="960" height="540" xmlns="http://www.w3.org/2000/svg" xmlns:xlink="http://www.w3.org/1999/xlink" version="1.1"><rect x="0" y="0" width="960" height="540" fill="#002233"></rect><path d="M0 422L22.8 426.5C45.7 431 91.3 440 137 447.5C182.7 455 228.3 461 274 446.5C319.7 432 365.3 397 411.2 386.7C457 376.3 503 390.7 548.8 388.3C594.7 386 640.3 367 686 372.7C731.7 378.3 777.3 408.7 823 407.3C868.7 406 914.3 373 937.2 356.5L960 340L960 541L937.2 541C914.3 541 868.7 541 823 541C777.3 541 731.7 541 686 541C640.3 541 594.7 541 548.8 541C503 541 457 541 411.2 541C365.3 541 319.7 541 274 541C228.3 541 182.7 541 137 541C91.3 541 45.7 541 22.8 541L0 541Z" fill="#0066FF" stroke-linecap="round" stroke-linejoin="miter"></path></svg>