<svg id="visual" viewBox="0 0 900 600" width="900" height="600" xmlns="http://www.w3.org/2000/svg" xmlns:xlink="http://www.w3.org/1999/xlink" version="1.1"><path d="M0 193L11.5 179C23 165 46 137 69 136C92 135 115 161 138.2 182C161.3 203 184.7 219 207.8 226C231 233 254 231 277 208C300 185 323 141 346 120C369 99 392 101 415.2 102C438.3 103 461.7 103 484.8 130C508 157 531 211 554 234C577 257 600 249 623 237C646 225 669 209 692.2 177C715.3 145 738.7 97 761.8 103C785 109 808 169 831 210C854 251 877 273 888.5 284L900 295L900 0L888.5 0C877 0 854 0 831 0C808 0 785 0 761.8 0C738.7 0 715.3 0 692.2 0C669 0 646 0 623 0C600 0 577 0 554 0C531 0 508 0 484.8 0C461.7 0 438.3 0 415.2 0C392 0 369 0 346 0C323 0 300 0 277 0C254 0 231 0 207.8 0C184.7 0 161.3 0 138.2 0C115 0 92 0 69 0C46 0 23 0 11.5 0L0 0Z" fill="#6198ff"></path><path d="M0 265L11.5 253C23 241 46 217 69 219C92 221 115 249 138.2 265C161.3 281 184.7 285 207.8 283C231 281 254 273 277 252C300 231 323 197 346 176C369 155 392 147 415.2 147C438.3 147 461.7 155 484.8 195C508 235 531 307 554 339C577 371 600 363 623 346C646 329 669 303 692.2 286C715.3 269 738.7 261 761.8 280C785 299 808 345 831 361C854 377 877 363 888.5 356L900 349L900 293L888.5 282C877 271 854 249 831 208C808 167 785 107 761.8 101C738.7 95 715.3 143 692.2 175C669 207 646 223 623 235C600 247 577 255 554 232C531 209 508 155 484.8 128C461.7 101 438.3 101 415.2 100C392 99 369 97 346 118C323 139 300 183 277 206C254 229 231 231 207.8 224C184.7 217 161.3 201 138.2 180C115 159 92 133 69 134C46 135 23 163 11.5 177L0 191Z" fill="#3c80ff"></path><path d="M0 373L11.5 361C23 349 46 325 69 327C92 329 115 357 138.2 368C161.3 379 184.7 373 207.8 366C231 359 254 351 277 329C300 307 323 271 346 247C369 223 392 211 415.2 205C438.3 199 461.7 199 484.8 240C508 281 531 363 554 409C577 455 600 465 623 446C646 427 669 379 692.2 348C715.3 317 738.7 303 761.8 317C785 331 808 373 831 386C854 399 877 383 888.5 375L900 367L900 347L888.5 354C877 361 854 375 831 359C808 343 785 297 761.8 278C738.7 259 715.3 267 692.2 284C669 301 646 327 623 344C600 361 577 369 554 337C531 305 508 233 484.8 193C461.7 153 438.3 145 415.2 145C392 145 369 153 346 174C323 195 300 229 277 250C254 271 231 279 207.8 281C184.7 283 161.3 279 138.2 263C115 247 92 219 69 217C46 215 23 239 11.5 251L0 263Z" fill="#0066ff"></path><path d="M0 499L11.5 502C23 505 46 511 69 506C92 501 115 485 138.2 485C161.3 485 184.7 501 207.8 506C231 511 254 505 277 509C300 513 323 527 346 525C369 523 392 505 415.2 501C438.3 497 461.7 507 484.8 514C508 521 531 525 554 534C577 543 600 557 623 551C646 545 669 519 692.2 519C715.3 519 738.7 545 761.8 545C785 545 808 519 831 499C854 479 877 465 888.5 458L900 451L900 365L888.5 373C877 381 854 397 831 384C808 371 785 329 761.8 315C738.7 301 715.3 315 692.2 346C669 377 646 425 623 444C600 463 577 453 554 407C531 361 508 279 484.8 238C461.7 197 438.3 197 415.2 203C392 209 369 221 346 245C323 269 300 305 277 327C254 349 231 357 207.8 364C184.7 371 161.3 377 138.2 366C115 355 92 327 69 325C46 323 23 347 11.5 359L0 371Z" fill="#0059dd"></path><path d="M0 601L11.5 601C23 601 46 601 69 601C92 601 115 601 138.2 601C161.3 601 184.7 601 207.8 601C231 601 254 601 277 601C300 601 323 601 346 601C369 601 392 601 415.2 601C438.3 601 461.7 601 484.8 601C508 601 531 601 554 601C577 601 600 601 623 601C646 601 669 601 692.2 601C715.3 601 738.7 601 761.8 601C785 601 808 601 831 601C854 601 877 601 888.5 601L900 601L900 449L888.5 456C877 463 854 477 831 497C808 517 785 543 761.8 543C738.7 543 715.3 517 692.2 517C669 517 646 543 623 549C600 555 577 541 554 532C531 523 508 519 484.8 512C461.7 505 438.3 495 415.2 499C392 503 369 521 346 523C323 525 300 511 277 507C254 503 231 509 207.8 504C184.7 499 161.3 483 138.2 483C115 483 92 499 69 504C46 509 23 503 11.5 500L0 497Z" fill="#004cbb"></path></svg>