<svg id="visual" viewBox="0 0 900 600" width="900" height="600" xmlns="http://www.w3.org/2000/svg" xmlns:xlink="http://www.w3.org/1999/xlink" version="1.1"><path d="M0 145L11.5 161C23 177 46 209 69 219C92 229 115 217 138.2 214C161.3 211 184.7 217 207.8 217C231 217 254 211 277 201C300 191 323 177 346 161C369 145 392 127 415.2 126C438.3 125 461.7 141 484.8 147C508 153 531 149 554 147C577 145 600 145 623 163C646 181 669 217 692.2 214C715.3 211 738.7 169 761.8 159C785 149 808 171 831 169C854 167 877 141 888.5 128L900 115L900 0L888.5 0C877 0 854 0 831 0C808 0 785 0 761.8 0C738.7 0 715.3 0 692.2 0C669 0 646 0 623 0C600 0 577 0 554 0C531 0 508 0 484.8 0C461.7 0 438.3 0 415.2 0C392 0 369 0 346 0C323 0 300 0 277 0C254 0 231 0 207.8 0C184.7 0 161.3 0 138.2 0C115 0 92 0 69 0C46 0 23 0 11.5 0L0 0Z" fill="#72b7c7"></path><path d="M0 265L11.5 277C23 289 46 313 69 327C92 341 115 345 138.2 343C161.3 341 184.7 333 207.8 331C231 329 254 333 277 319C300 305 323 273 346 255C369 237 392 233 415.2 234C438.3 235 461.7 241 484.8 250C508 259 531 271 554 273C577 275 600 267 623 275C646 283 669 307 692.2 301C715.3 295 738.7 259 761.8 256C785 253 808 283 831 281C854 279 877 245 888.5 228L900 211L900 113L888.5 126C877 139 854 165 831 167C808 169 785 147 761.8 157C738.7 167 715.3 209 692.2 212C669 215 646 179 623 161C600 143 577 143 554 145C531 147 508 151 484.8 145C461.7 139 438.3 123 415.2 124C392 125 369 143 346 159C323 175 300 189 277 199C254 209 231 215 207.8 215C184.7 215 161.3 209 138.2 212C115 215 92 227 69 217C46 207 23 175 11.5 159L0 143Z" fill="#55a9bc"></path><path d="M0 361L11.5 364C23 367 46 373 69 387C92 401 115 423 138.2 429C161.3 435 184.7 425 207.8 415C231 405 254 395 277 375C300 355 323 325 346 315C369 305 392 315 415.2 323C438.3 331 461.7 337 484.8 339C508 341 531 339 554 341C577 343 600 349 623 362C646 375 669 395 692.2 388C715.3 381 738.7 347 761.8 344C785 341 808 369 831 366C854 363 877 329 888.5 312L900 295L900 209L888.5 226C877 243 854 277 831 279C808 281 785 251 761.8 254C738.7 257 715.3 293 692.2 299C669 305 646 281 623 273C600 265 577 273 554 271C531 269 508 257 484.8 248C461.7 239 438.3 233 415.2 232C392 231 369 235 346 253C323 271 300 303 277 317C254 331 231 327 207.8 329C184.7 331 161.3 339 138.2 341C115 343 92 339 69 325C46 311 23 287 11.5 275L0 263Z" fill="#319cb2"></path><path d="M0 463L11.5 465C23 467 46 471 69 477C92 483 115 491 138.2 493C161.3 495 184.7 491 207.8 489C231 487 254 487 277 474C300 461 323 435 346 419C369 403 392 397 415.2 396C438.3 395 461.7 399 484.8 410C508 421 531 439 554 445C577 451 600 445 623 446C646 447 669 455 692.2 446C715.3 437 738.7 411 761.8 408C785 405 808 425 831 418C854 411 877 377 888.5 360L900 343L900 293L888.5 310C877 327 854 361 831 364C808 367 785 339 761.8 342C738.7 345 715.3 379 692.2 386C669 393 646 373 623 360C600 347 577 341 554 339C531 337 508 339 484.8 337C461.7 335 438.3 329 415.2 321C392 313 369 303 346 313C323 323 300 353 277 373C254 393 231 403 207.8 413C184.7 423 161.3 433 138.2 427C115 421 92 399 69 385C46 371 23 365 11.5 362L0 359Z" fill="#2a879a"></path><path d="M0 601L11.5 601C23 601 46 601 69 601C92 601 115 601 138.2 601C161.3 601 184.7 601 207.8 601C231 601 254 601 277 601C300 601 323 601 346 601C369 601 392 601 415.2 601C438.3 601 461.7 601 484.8 601C508 601 531 601 554 601C577 601 600 601 623 601C646 601 669 601 692.2 601C715.3 601 738.7 601 761.8 601C785 601 808 601 831 601C854 601 877 601 888.5 601L900 601L900 341L888.5 358C877 375 854 409 831 416C808 423 785 403 761.8 406C738.7 409 715.3 435 692.2 444C669 453 646 445 623 444C600 443 577 449 554 443C531 437 508 419 484.8 408C461.7 397 438.3 393 415.2 394C392 395 369 401 346 417C323 433 300 459 277 472C254 485 231 485 207.8 487C184.7 489 161.3 493 138.2 491C115 489 92 481 69 475C46 469 23 465 11.5 463L0 461Z" fill="#247282"></path></svg>