<?xml version="1.0" encoding="UTF-8"?>
<svg id="_图层_2" data-name="图层 2" xmlns="http://www.w3.org/2000/svg" xmlns:xlink="http://www.w3.org/1999/xlink" viewBox="0 0 32 32">
  <defs>
    <style>
    </style>
    <symbol id="_新建符号_2" data-name="新建符号 2" viewBox="0 0 129.52 129.52">
      <path d="m109.33,0H20.19C9.04,0,0,9.04,0,20.19v89.14c0,11.15,9.04,20.19,20.19,20.19h89.14c11.15,0,20.19-9.04,20.19-20.19V20.19c0-11.15-9.04-20.19-20.19-20.19Zm-.12,105.81c0,3.56-2.89,6.45-6.45,6.45H33.91V12.14c0-3.86,3.13-6.98,6.98-6.98h3.43c3.86,0,6.98,3.13,6.98,6.98v85.12h51.45c3.56,0,6.45,2.89,6.45,6.45v2.09Z"/>
    </symbol>
  </defs>
  <use width="129.52" height="129.52" transform="translate(.26 .56) scale(.23)" xlink:href="#_新建符号_2"/>
</svg>